<svg width="164" height="26" viewBox="0 0 164 26" fill="none" xmlns="http://www.w3.org/2000/svg">
<path d="M52.3034 21.1929L50.6645 24.3736H28.0386L40.3599 0.666035H49.1508C47.6275 3.72797 43.7771 11.2022 41.3562 15.8933C39.1061 20.6983 43.125 21.1929 45.2691 21.1929H52.3034Z" fill="white"/>
<path d="M23.4097 21.1856L21.7684 24.3712H15.5308C2.94716 24.3712 -3.52874 15.5272 3.13246 7.74267C8.46528 1.51455 18.9312 0.670883 23.9487 0.666035H34.0633L32.3883 3.89282H27.1061C19.8865 3.89282 15.165 6.07957 12.7104 12.8023C10.7466 18.1794 14.3107 21.1856 19.7422 21.1856H23.4121H23.4097Z" fill="white"/>
<path d="M99.9305 5.99448L90.4224 24.3321H94.0393C94.6482 23.1563 96.6191 19.3695 99.673 13.4736C102.643 7.54848 104.39 9.76674 105.239 11.6359C106.014 13.3426 107.506 16.6688 108.257 18.3319C109.104 20.2083 111.017 25.0376 113.518 25.0376C117.577 25.0667 120.258 19.612 121.719 16.9258L130.171 0.634279H126.655C125.29 3.24044 122.102 9.39582 120.034 13.4008C117.78 17.3501 116.307 15.2845 115.602 13.7523C114.627 11.6408 112.68 7.39817 111.739 5.289C111.039 3.72046 109.718 -0.000896454 107.037 -0.000896454C103.456 -0.000896454 101.028 3.87804 99.9305 5.99448Z" fill="white"/>
<path d="M133.76 5.99448L124.251 24.3321H127.868C128.477 23.1563 130.448 19.3695 133.502 13.4736C136.472 7.54848 138.219 9.76674 139.068 11.6359C139.843 13.3426 141.335 16.6688 142.086 18.3319C142.933 20.2083 144.846 25.0376 147.347 25.0376C151.406 25.0667 154.087 19.612 155.548 16.9258L164 0.634279H160.484C159.119 3.24044 155.931 9.39582 153.864 13.4008C151.609 17.3501 150.136 15.2845 149.431 13.7523C148.456 11.6408 146.509 7.39817 145.568 5.289C144.868 3.72046 143.547 -0.000896454 140.866 -0.000896454C137.285 -0.000896454 134.857 3.87804 133.76 5.99448Z" fill="white"/>
<path d="M91.7561 0.301802C71.3898 0.301802 60.1827 17.374 54.9919 24.3318C54.9751 24.356 54.9558 24.3803 54.939 24.4021H69.3515L71.0192 21.168H63.7492C65.6672 18.6128 69.1205 14.8478 72.403 12.3313C74.203 10.9519 78.0992 8.34817 80.6091 7.41237C85.6147 5.54806 83.9686 8.26089 81.3576 13.2574C81.088 13.7762 80.395 15.1072 79.5816 16.6782L75.6301 24.4021H84.2478L92.4347 8.59302C95.6378 2.50795 95.2985 0.287256 91.7561 0.301802Z" fill="white"/>
</svg>
