<svg width="160" height="26" viewBox="0 0 160 26" fill="none" xmlns="http://www.w3.org/2000/svg">
<path d="M50.6232 21.5792L49.0226 24.6854H26.9244L38.9583 1.5333H47.5442C46.0564 4.52349 42.2958 11.8226 39.9314 16.4038C37.7338 21.0962 41.6589 21.5792 43.7531 21.5792H50.6232Z" fill="white"/>
<path d="M22.4034 21.5721L20.8005 24.683H14.7083C2.41822 24.683 -3.90663 16.0463 2.5992 8.44412C7.80762 2.36193 18.0294 1.53803 22.9299 1.5333H32.8085L31.1726 4.68448H26.0136C18.9625 4.68448 14.351 6.82 11.9537 13.3852C10.0358 18.6363 13.5167 21.5721 18.8215 21.5721H22.4058H22.4034Z" fill="white"/>
<path d="M97.1395 6.73691L87.8531 24.6449H91.3857C91.9804 23.4967 93.9053 19.7986 96.888 14.0407C99.7883 8.2545 101.495 10.4208 102.324 12.2462C103.081 13.9129 104.538 17.1611 105.272 18.7853C106.099 20.6177 107.968 25.3339 110.41 25.3339C114.375 25.3623 116.993 20.0353 118.42 17.4121L126.674 1.5023H123.24C121.908 4.04739 118.793 10.0586 116.774 13.9697C114.572 17.8264 113.134 15.8093 112.445 14.313C111.493 12.2509 109.592 8.10771 108.673 6.04796C107.989 4.51616 106.698 0.882004 104.08 0.882004C100.583 0.882004 98.2112 4.67005 97.1395 6.73691Z" fill="white"/>
<path d="M130.179 6.73691L120.893 24.6449H124.426C125.02 23.4967 126.945 19.7986 129.928 14.0407C132.828 8.2545 134.535 10.4208 135.364 12.2462C136.121 13.9129 137.578 17.1611 138.312 18.7853C139.139 20.6177 141.008 25.3339 143.45 25.3339C147.415 25.3623 150.033 20.0353 151.46 17.4121L159.714 1.5023H156.28C154.948 4.04739 151.833 10.0586 149.814 13.9697C147.612 17.8264 146.174 15.8093 145.485 14.313C144.533 12.2509 142.632 8.10771 141.713 6.04796C141.029 4.51616 139.738 0.882004 137.12 0.882004C133.623 0.882004 131.251 4.67005 130.179 6.73691Z" fill="white"/>
<path d="M89.1555 1.17761C69.2643 1.17761 58.3187 17.8498 53.2489 24.6446C53.2325 24.6683 53.2136 24.6919 53.1972 24.7132H67.2736L68.9024 21.5549H61.8019C63.6751 19.0596 67.0479 15.3828 70.2538 12.9253C72.0119 11.5782 75.8172 9.03544 78.2686 8.12158C83.1574 6.30095 81.5497 8.95021 78.9996 13.8297C78.7363 14.3363 78.0594 15.6361 77.265 17.1703L73.4057 24.7132H81.8224L89.8183 9.27457C92.9467 3.33206 92.6153 1.1634 89.1555 1.17761Z" fill="white"/>
</svg>
